<?xml version="1.0" encoding="utf-8"?>
<!-- Generator: Adobe Illustrator 18.0.0, SVG Export Plug-In . SVG Version: 6.00 Build 0)  -->
<!DOCTYPE svg PUBLIC "-//W3C//DTD SVG 1.1//EN" "http://www.w3.org/Graphics/SVG/1.1/DTD/svg11.dtd">
<svg version="1.1" id="Layer_1" xmlns="http://www.w3.org/2000/svg" xmlns:xlink="http://www.w3.org/1999/xlink" x="0px" y="0px"
	 viewBox="0 0 63.1 45.4" enable-background="new 0 0 63.1 45.4" xml:space="preserve">
<g>
	<path fill="#FFFFFF" d="M49.9,42.7c-1.1,0-1.9-0.8-2.3-2.9c-1.1-0.1-2.4-0.2-4-0.2c-3.6,0-4.6,1.2-8.9,1.2c-4.4,0-6-0.9-7.6-1.3
		c-1.6-0.4-4.1-0.5-4.4-2C22.3,36.1,23,35,23,35s-0.8,0-1.3-0.2c-0.5-0.2-1.4-1.2-1.4-2.1c-0.1-0.9,0.5-2.5,0.5-2.5
		s-2.4-0.9-2.4-2.7s2.8-3.9,3-4c-0.3,0-12.7-0.5-14.5-0.5c-1.9-0.1-3.1-1.1-3.1-2.4c0-1.3,1.4-2.4,3.4-2.4
		c7.9-0.3,15.9-0.2,23.8-0.2c-1.9-1.8-3.6-3.7-4.2-6.1c-0.7-2.7,0-5.5,0.8-6.4c0.8-0.9,2-1.1,2.5-0.8c0.5,0.2,0.1,3.6,3.1,6.7
		c3,3.1,6.2,3.3,8.2,5.6c1.8,1.9,3.9,6.2,6.6,8.6c0.4-1,1-1.4,1.8-1.4h8c1.5,0,1.9,1,2.2,2.1c0.2,1.1,0.7,2.9,0.7,7.2
		c0,4.3-0.4,6.1-0.7,7.2c-0.2,1.1-0.7,2.1-2.2,2.1H49.9z M53.9,38.8c0-1,0.8-1.8,1.8-1.8c1.1,0,1.9,0.8,1.9,1.8c1.1,0,2,0.1,2.2-1.6
		c0.1-0.9,0.2-2.2,0.2-3.8c0-4.2-0.5-5.9-0.7-7c-0.3-1.1-0.6-1.5-1.4-1.5h-8c-0.5,0-0.9,0.2-1.2,1.1c0.1,0.2,0.2,0.2,0.4,0.3
		c0.1-0.3,0.2-0.5,0.4-0.5c0.7,0,1.2,3.4,1.2,7.5c0,1.4-0.1,2.7-0.2,3.8c-0.1,1,0.5,1.6,1.3,1.6H53.9z M55.7,39.9
		c0.6,0,1.1-0.5,1.1-1.1s-0.5-1.1-1.1-1.1s-1.1,0.5-1.1,1.1S55.1,39.9,55.7,39.9z M5.7,19.7c0,0.5,0.5,1,2.2,1
		c1.9,0,2.2-0.5,2.5-0.8c0.3-0.3,0.5-0.3,0.8,0.1c0.3,0.4,0.5,0.8,2.7,0.8c2.2,0,2.4-0.5,2.6-0.9c0.2-0.3,0.5-0.3,0.8,0.1
		c0.2,0.4,0.3,0.9,2.6,0.8c2.3,0,2.2-0.8,2.4-1.1s0.6-0.2,1,0.2c0.3,0.5,0.5,2.6,3.4,3.3c3,0.6,4.9-0.7,5.5-0.5
		c0.7,0.2-0.2,2.7,2.8,4.9c3,2.1,5.1,1.8,5.3,2.4c0.1,0.6-1.5,1.8-1.5,3.7c0,1.8,1.4,3.5,4.8,3.5c3.5,0,4.6-2.4,4.9-4.4
		c0.3-2.1,0.4-4.8,0.1-5.3c-0.3-0.4-1.5-1.6-3-3.5c-1.5-1.8-3-4.6-4.5-6.2c-1.6-1.8-5.6-3.1-8.2-5.8c-2.7-2.7-2.8-5.9-3.2-5.9
		c-0.8-0.2-0.7,3.6,1.3,6.9c1.9,3.2,4.1,4.6,4.6,5c0.5,0.4,0.4,0.7-0.1,0.6c-0.5-0.1-1.3-0.2-1.9,0.3c-0.6,0.5-0.6,1.2-0.6,1.8
		c0,0.5-0.4,0.5-0.6,0c-0.2-0.5-0.6-1.2-1.7-1.6c-1-0.3-21.9-0.1-23.1,0.1C6.7,19,5.7,19.2,5.7,19.7z M30.8,28.7
		c0.1,0.2,1.1,0.3,1.2,0.2c0.5-1.1,0-1.9-0.2-2s-0.8,0-1,0.2C30.7,27.1,30.7,28.6,30.8,28.7z M30.6,32.8c0.2,0.1,0.8,0.3,0.8,0.2
		c0.5-1.2-0.1-2.1-0.2-2.1s-0.4,0-0.5,0.2C30.6,31.1,30.4,32.7,30.6,32.8z M20,26.9c0.4,0.4,2.4,0.5,4.7,0.7
		c2.4,0.2,3.7,0.2,4.5-0.2c0.9-0.5,1-0.8,1-1.1c0-0.4-1.8-0.4-4.2-0.7c-2.4-0.4-3.3-0.9-4.3-0.7C20.5,25.1,19.6,26.5,20,26.9z
		 M22,31.5c0.4,0.4,1.2,0.7,3.4,0.8c2.1,0.1,3.7-0.2,4-0.5c0.5-0.3,0.6-0.8,0.5-0.9c-0.2-0.1-1.8,0-3.9-0.1c-2.1-0.2-3.7-0.6-4-0.5
		C21.7,30.3,21.6,31.2,22,31.5z M24.1,35.7c0.3,0.2,1,0.3,2.6,0.2c1.5-0.2,2.1-0.2,2.4-0.5c0.3-0.3,0.4-0.6,0.2-0.6
		c-0.2-0.1-0.9,0.2-2.6,0.2c-1.7,0.2-2.4,0-2.7,0.1C23.8,35,23.8,35.5,24.1,35.7z"/>
</g>
</svg>
