<?xml version="1.0" encoding="utf-8"?>
<!-- Generator: Adobe Illustrator 18.0.0, SVG Export Plug-In . SVG Version: 6.00 Build 0)  -->
<!DOCTYPE svg PUBLIC "-//W3C//DTD SVG 1.1//EN" "http://www.w3.org/Graphics/SVG/1.1/DTD/svg11.dtd">
<svg version="1.1" id="Layer_1" xmlns="http://www.w3.org/2000/svg" xmlns:xlink="http://www.w3.org/1999/xlink" x="0px" y="0px"
	 viewBox="0 0 63.1 45.4" enable-background="new 0 0 63.1 45.4" xml:space="preserve">
<g>
	<path fill="#FFFFFF" d="M6.6,42.7c-1.5,0-2-1-2.2-2.1c-0.3-1.1-0.7-2.9-0.7-7.2c0-4.3,0.5-6.1,0.7-7.2c0.3-1.1,0.7-2.1,2.2-2.1h8
		c0.8,0,1.4,0.5,1.8,1.4c2.7-2.4,4.9-6.7,6.6-8.6c2.1-2.4,5.2-2.5,8.2-5.6c3-3.1,2.7-6.5,3.1-6.7C35,4.3,36.1,4.4,37,5.3
		c0.8,0.9,1.5,3.7,0.8,6.4c-0.6,2.4-2.3,4.3-4.2,6.1c7.9,0.1,15.9-0.1,23.8,0.2c2,0.1,3.4,1.1,3.4,2.4c0,1.3-1.2,2.4-3.1,2.4
		c-1.8,0.1-14.2,0.5-14.5,0.5c0.2,0.2,3,2.2,3,4s-2.4,2.7-2.4,2.7s0.6,1.6,0.5,2.5c-0.1,0.8-1,1.8-1.4,2.1C42.3,35,41.5,35,41.5,35
		s0.8,1.1,0.5,2.5c-0.3,1.4-2.8,1.6-4.4,2c-1.6,0.4-3.2,1.3-7.6,1.3c-4.3,0-5.3-1.2-8.9-1.2c-1.6,0-3,0.2-4,0.2
		c-0.4,2.1-1.1,2.9-2.3,2.9H6.6z M12.7,38.8c0.8,0,1.4-0.6,1.3-1.6c-0.1-1.1-0.2-2.4-0.2-3.8c0-4.1,0.5-7.5,1.2-7.5
		c0.2,0,0.3,0.2,0.4,0.5c0.2-0.1,0.3-0.2,0.4-0.3c-0.3-0.9-0.8-1.1-1.2-1.1h-8c-0.8,0-1.1,0.4-1.4,1.5c-0.2,1.1-0.7,2.8-0.7,7
		c0,1.6,0.1,2.9,0.2,3.8c0.2,1.7,1.1,1.6,2.2,1.6c0-1,0.8-1.8,1.9-1.8c1,0,1.8,0.8,1.8,1.8H12.7z M9.8,38.8c0-0.6-0.5-1.1-1.1-1.1
		s-1.1,0.5-1.1,1.1s0.5,1.1,1.1,1.1S9.8,39.4,9.8,38.8z M57.2,18.9c-1.2-0.2-22.1-0.4-23.1-0.1c-1.1,0.4-1.4,1.1-1.7,1.6
		c-0.2,0.5-0.6,0.5-0.6,0c0-0.5,0-1.3-0.6-1.8c-0.6-0.5-1.4-0.4-1.9-0.3c-0.5,0.1-0.6-0.2-0.1-0.6c0.5-0.4,2.7-1.8,4.6-5
		c2-3.3,2.1-7,1.3-6.9c-0.4,0.1-0.5,3.3-3.2,5.9c-2.7,2.7-6.6,4-8.2,5.8c-1.5,1.7-3,4.4-4.5,6.2c-1.5,1.9-2.7,3.1-3,3.5
		c-0.3,0.5-0.2,3.1,0.1,5.3c0.2,2.1,1.4,4.4,4.9,4.4c3.4,0,4.8-1.8,4.8-3.5c0-1.8-1.6-3-1.5-3.7c0.2-0.6,2.2-0.3,5.3-2.4
		c3-2.2,2.1-4.6,2.8-4.9c0.6-0.2,2.5,1.1,5.5,0.5c3-0.7,3.1-2.8,3.4-3.3c0.4-0.5,0.8-0.6,1-0.2s0.2,1.1,2.4,1.1
		c2.3,0.1,2.4-0.5,2.6-0.8c0.2-0.4,0.5-0.4,0.8-0.1c0.2,0.4,0.4,0.9,2.6,0.9c2.2,0.1,2.4-0.4,2.7-0.8c0.3-0.4,0.5-0.4,0.8-0.1
		c0.3,0.4,0.6,0.8,2.5,0.8c1.7,0,2.2-0.5,2.2-1C58.9,19.2,57.8,19,57.2,18.9z M33.6,27c-0.2-0.2-0.8-0.2-1-0.2s-0.7,0.9-0.2,2
		c0.1,0.2,1.1,0,1.2-0.2C33.9,28.6,33.8,27.1,33.6,27z M33.8,31c-0.1-0.2-0.3-0.2-0.5-0.2s-0.8,0.9-0.2,2.1c0.1,0.2,0.7-0.1,0.8-0.2
		C34.1,32.7,33.9,31.1,33.8,31z M42.9,24.8c-1.1-0.2-1.9,0.3-4.3,0.7c-2.4,0.3-4.2,0.3-4.2,0.7c0,0.3,0.1,0.7,1,1.1
		c0.8,0.4,2.1,0.4,4.5,0.2c2.4-0.2,4.3-0.3,4.7-0.7C44.9,26.5,44,25.1,42.9,24.8z M42.5,30.2c-0.2-0.1-1.8,0.4-4,0.5
		c-2.1,0.1-3.7,0-3.9,0.1c-0.2,0.2,0,0.6,0.5,0.9c0.4,0.3,2,0.6,4,0.5c2.1-0.1,3-0.4,3.4-0.8C42.9,31.2,42.9,30.3,42.5,30.2z
		 M40.6,35c-0.2-0.1-1,0.1-2.7-0.1c-1.7-0.1-2.4-0.3-2.6-0.2c-0.2,0-0.2,0.3,0.2,0.6c0.3,0.3,0.8,0.4,2.4,0.5c1.6,0.2,2.3,0,2.6-0.2
		C40.7,35.5,40.7,35,40.6,35z"/>
</g>
</svg>
